<?xml version="1.0" encoding="UTF-8" standalone="no"?>
<svg
   xmlns:dc="http://purl.org/dc/elements/1.1/"
   xmlns:cc="http://creativecommons.org/ns#"
   xmlns:rdf="http://www.w3.org/1999/02/22-rdf-syntax-ns#"
   xmlns:svg="http://www.w3.org/2000/svg"
   xmlns="http://www.w3.org/2000/svg"
   xmlns:sodipodi="http://sodipodi.sourceforge.net/DTD/sodipodi-0.dtd"
   xmlns:inkscape="http://www.inkscape.org/namespaces/inkscape"
   height="511pt"
   viewBox="-76 0 511 511.99976"
   width="511pt"
   version="1.1"
   id="svg80"
   sodipodi:docname="fire.svg"
   inkscape:version="0.92.5 (2060ec1f9f, 2020-04-08)"
   inkscape:export-filename="/home/ansh/Source/FireFactory/src/frontend/public/logo512.png"
   inkscape:export-xdpi="72.1409"
   inkscape:export-ydpi="72.1409">
  <metadata
     id="metadata86">
    <rdf:RDF>
      <cc:Work
         rdf:about="">
        <dc:format>image/svg+xml</dc:format>
        <dc:type
           rdf:resource="http://purl.org/dc/dcmitype/StillImage" />
        <dc:title />
      </cc:Work>
    </rdf:RDF>
  </metadata>
  <defs
     id="defs84" />
  <sodipodi:namedview
     pagecolor="#ffffff"
     bordercolor="#666666"
     borderopacity="1"
     objecttolerance="10"
     gridtolerance="10"
     guidetolerance="10"
     inkscape:pageopacity="0"
     inkscape:pageshadow="2"
     inkscape:window-width="2560"
     inkscape:window-height="1376"
     id="namedview82"
     showgrid="false"
     inkscape:zoom="0.86668298"
     inkscape:cx="60.826853"
     inkscape:cy="516.28597"
     inkscape:window-x="0"
     inkscape:window-y="27"
     inkscape:window-maximized="1"
     inkscape:current-layer="svg80" />
  <path
     d="m287.855469 166.050781c-25.496094-29.097656-47.390625-55.292969-47.390625-90.984375 0-18.597656 6.894531-36.296875 19.195312-50.09375 4.199219-4.5 4.796875-11.398437 2.101563-16.800781-3.003907-5.699219-9-8.695313-15.300781-8.0976562-13.195313 1.8007812-41.09375 22.5000002-65.988282 53.6914062-2.101562 2.402344-4.199218 4.800781-6 7.5-30.59375 40.195313-63.289062 107.484375-58.191406 200.171875-19.195312-23.097656-30.894531-60.894531-26.394531-94.488281.898437-7.5-3.902344-14.699219-11.398438-16.496094-7.5-1.800781-15 2.398437-17.699219 9.597656-8.996093 24.898438-18.894531 44.691407-28.195312 63.589844-17.398438 34.195313-32.09375 63.890625-32.09375 107.386719 0 99.285156 80.6875 180.972656 179.972656 180.972656s179.972656-81.6875 179.972656-180.972656c0-81.589844-38.691406-125.984375-72.589843-164.976563zm0 0"
     id="path76"
     fill="#ff9100" />
  <path
     d="m360.445312 331.027344c0 99.285156-80.6875 180.972656-179.972656 180.972656v-458.234375c24.898438-31.191406 52.792969-51.890625 65.992188-53.6914062 6.296875-.5976568 12.296875 2.3984372 15.296875 8.0976562 2.699219 5.402344 2.097656 12.300781-2.101563 16.800781-12.296875 13.796875-19.195312 31.496094-19.195312 50.09375 0 35.691406 21.894531 61.886719 47.394531 90.984375 33.894531 38.992188 72.585937 83.386719 72.585937 164.976563zm0 0"
     id="path78"
     fill="#ff641a" />
  <path
     style="fill:#ff6600;stroke-width:0.57691222"
     d="M 325.76801,680.54244 C 241.04725,674.48273 166.35777,624.26947 127.96028,547.55759 115.50631,522.67662 107.63483,496.0369 104.10914,466.83737 c -1.46315,-12.11773 -1.46666,-40.86413 -0.006,-52.78747 3.28322,-26.80888 10.14417,-50.26884 23.19902,-79.32543 1.85329,-4.12492 8.15192,-17.10545 13.99697,-28.84561 21.73892,-43.6641 30.66531,-63.51045 41.32895,-91.88821 1.98159,-5.27332 5.94736,-9.7968 10.58598,-12.0747 2.85538,-1.40219 3.95855,-1.61203 8.47489,-1.61203 4.51905,0 5.61874,0.20946 8.48212,1.61557 4.14853,2.0372 8.08582,6.35823 9.724,10.67172 1.1724,3.08703 1.21867,3.80386 0.75216,11.65457 -0.69456,11.68851 -0.55334,29.15357 0.2939,36.34547 2.86402,24.31177 11.41465,50.13756 23.04943,69.61708 4.12339,6.90358 11.52339,17.47206 12.24581,17.48915 0.17473,0.004 0.20744,-8.39485 0.0727,-18.6644 -0.51563,-39.30269 3.14496,-72.2142 12.00791,-107.96032 10.86618,-43.82555 28.38974,-84.10756 52.20167,-119.99774 5.89246,-8.881321 16.3602,-23.282717 20.12794,-27.691785 l 1.47899,-1.730737 0.0208,304.753882 0.0208,304.75388 -5.04798,-0.0835 c -2.77639,-0.0462 -7.88418,-0.28638 -11.35065,-0.53434 z"
     id="path88"
     inkscape:connector-curvature="0"
     transform="matrix(0.75146738,0,0,0.75146738,-76.49988,0)" />
  <path
     id="path92"
     d="m 247.92243,315.22549 c -16.03791,-16.55686 -29.81032,-31.46227 -29.81032,-51.77104 0,-10.58226 4.3369,-20.65329 12.07451,-28.50386 2.64145,-2.56054 3.0174,-6.48582 1.32195,-9.55981 -1.88956,-3.24291 -5.6613,-4.94772 -9.62471,-4.60765 -8.3003,1.02467 -25.84937,12.80273 -41.50887,30.55096 -1.32196,1.36695 -2.64145,2.73169 -3.77421,4.26757 -19.24451,22.87155 -39.81097,61.15971 -36.60437,113.89985 -12.07451,-13.1428 -19.43371,-34.64961 -16.60306,-53.7648 0.56515,-4.26757 -2.45471,-8.36401 -7.17001,-9.38644 -4.71775,-1.02467 -9.43551,1.36473 -11.13341,5.46116 -5.658854,14.16747 -11.885308,25.42987 -17.735818,36.18327 -10.94421,19.45749 -20.18806,36.35442 -20.18806,61.10414 0,56.49427 50.755188,102.97529 113.208938,102.97529 62.45374,0 113.20892,-46.48102 113.20892,-102.97529 0,-46.42546 -24.33821,-71.6864 -45.66148,-93.87335 z m 0,0"
     inkscape:connector-curvature="0"
     style="fill:#ffccaa;stroke-width:0.59826982" />
  <path
     id="path94"
     d="m 293.58391,409.09884 c 0,56.49427 -50.75518,102.97529 -113.20892,102.97529 V 251.33409 c 15.66196,-17.74823 33.20857,-29.52629 41.51133,-30.55096 3.96095,-0.34007 7.73515,1.36474 9.62225,4.60765 1.6979,3.07399 1.3195,6.99927 -1.32195,9.55981 -7.73515,7.85057 -12.07451,17.9216 -12.07451,28.50386 0,20.30877 13.77241,35.21418 29.81278,51.77104 21.32081,22.18695 45.65902,47.44789 45.65902,93.87335 z m 0,0"
     inkscape:connector-curvature="0"
     style="fill:#ffccaa;stroke-width:0.59826982" />
  <path
     inkscape:connector-curvature="0"
     id="path96"
     d="m 172.72058,511.73582 c -40.04738,-2.59108 -75.352994,-24.0619 -93.503428,-56.86334 -5.88698,-10.63892 -9.60782,-22.02986 -11.2744,-34.51537 -0.69163,-5.18145 -0.69329,-17.47319 -0.003,-22.57153 1.55197,-11.46328 4.79513,-21.49459 10.96614,-33.91897 0.87605,-1.76378 3.8534,-7.31416 6.61635,-12.33417 10.27596,-18.67044 14.495458,-27.1566 19.536148,-39.29072 0.93669,-2.25483 2.8113,-4.18904 5.00397,-5.16305 1.34974,-0.59957 1.8712,-0.68929 4.00607,-0.68929 2.13615,0 2.65597,0.0896 4.00949,0.6908 1.961,0.87109 3.82215,2.71873 4.59652,4.56315 0.55419,1.32 0.57606,1.6265 0.35554,4.98341 -0.32831,4.99792 -0.26156,12.46585 0.13893,15.54106 1.35382,10.39553 5.39569,21.43845 10.89543,29.76774 1.94912,2.95192 5.44709,7.47093 5.78858,7.47824 0.0826,0.002 0.0981,-3.58958 0.0344,-7.98076 -0.24373,-16.80555 1.48662,-30.87827 5.67612,-46.16304 5.13643,-18.73949 13.41979,-35.96377 24.67566,-51.31015 2.78536,-3.79759 7.73344,-9.95552 9.51445,-11.8408 l 0.69911,-0.74005 0.01,130.31051 0.01,130.31051 -2.38618,-0.0357 c -1.31239,-0.0198 -3.72684,-0.12245 -5.36543,-0.22848 z"
     style="fill:#ffccaa;stroke-width:0.25936836" />
  <path
     inkscape:connector-curvature="0"
     id="path98"
     d="m 175.42714,511.73131 c -43.18228,-1.79093 -81.613118,-26.05544 -98.883358,-62.43309 -4.60478,-9.69942 -7.89448,-21.73723 -8.72089,-31.91183 -0.46122,-5.67853 -0.17169,-17.23971 0.54029,-21.57428 1.33669,-8.13782 3.14628,-14.5622 6.21889,-22.07816 2.26056,-5.52961 4.75612,-10.52666 10.77957,-21.5848 9.65683,-17.72844 14.582804,-27.49991 18.342748,-36.3858 0.86114,-2.03514 1.80531,-4.12757 2.09817,-4.64984 0.84544,-1.50776 2.59431,-3.04554 4.38317,-3.85415 1.43456,-0.64845 1.94515,-0.74664 3.88265,-0.74664 1.93906,0 2.44764,0.098 3.88788,0.749 1.80477,0.8158 3.2369,2.08768 4.21331,3.74186 0.62053,1.05127 0.62557,1.13537 0.64776,10.80352 0.0239,10.41008 0.11009,11.35085 1.62323,17.71694 2.48149,10.4401 7.72423,21.15365 13.91156,28.42829 l 1.35059,1.58792 0.18431,-1.11004 c 0.10138,-0.61052 0.19342,-4.94169 0.20453,-9.62482 0.0336,-14.14834 0.99234,-23.57283 3.60069,-35.39486 5.8074,-26.32132 17.64014,-49.75362 35.76568,-70.82659 10.64649,-12.37773 23.40935,-23.14889 33.87529,-28.58893 4.16769,-2.1663 6.38312,-2.89963 9.13564,-3.02401 3.26672,-0.14762 5.00686,0.45521 7.25473,2.51323 1.95823,1.79282 2.66398,3.33379 2.66398,5.81658 0,2.05817 -0.6469,3.75505 -2.02192,5.3037 -4.40015,4.95574 -6.68662,8.23583 -8.55896,12.27838 -2.37035,5.1178 -3.41254,9.46111 -3.62498,15.10705 -0.50865,13.51844 4.81433,25.59414 17.88589,40.57584 2.71516,3.11194 5.12413,5.6978 11.41327,12.25137 17.68452,18.42804 25.42255,28.04667 32.11675,39.92217 10.09295,17.90489 14.66761,37.54958 13.73322,58.97358 -0.97624,22.38307 -10.30024,44.01038 -26.58066,61.65461 -17.98451,19.49107 -44.3064,32.62003 -71.68823,35.75701 -7.58577,0.86904 -10.86644,0.97043 -19.6348,0.60679 z m 4.96804,-146.68956 c -0.0627,-0.37497 -0.11565,-0.12673 -0.1177,0.55164 -0.002,0.67838 0.0492,0.98518 0.11397,0.68177 0.0647,-0.3034 0.0664,-0.85843 0.004,-1.23341 z m -0.003,-2.59069 c -0.0652,-0.30685 -0.12107,-0.11389 -0.1241,0.42882 -0.003,0.5427 0.0503,0.79377 0.1186,0.55791 0.0682,-0.23585 0.0707,-0.67988 0.006,-0.98673 z m -0.007,-1.71424 c -0.0871,-0.19679 -0.15167,-0.13834 -0.16475,0.14904 -0.0118,0.26004 0.0526,0.40574 0.14322,0.32376 0.0906,-0.082 0.10031,-0.29473 0.0215,-0.4728 z m 0.0168,-6.17079 c -0.0506,-1.12577 -0.0924,-0.27073 -0.0927,1.90008 -2.7e-4,2.17082 0.0411,3.0919 0.0921,2.04685 0.051,-1.04504 0.0513,-2.82117 4.8e-4,-3.94693 z m -0.0151,-18.14294 c -0.0686,-0.23744 -0.12471,-0.0432 -0.12471,0.43168 0,0.47487 0.0561,0.66914 0.12471,0.43171 0.0686,-0.23744 0.0686,-0.62597 0,-0.86339 z m -0.001,-1.09466 c -0.0871,-0.19679 -0.15168,-0.13834 -0.16476,0.14903 -0.0118,0.26005 0.0526,0.40574 0.14323,0.32378 0.0906,-0.082 0.1003,-0.29474 0.0215,-0.47281 z m 0,-0.98674 c -0.0871,-0.19678 -0.15168,-0.13834 -0.16476,0.14904 -0.0118,0.26004 0.0526,0.40574 0.14323,0.32378 0.0906,-0.082 0.1003,-0.29475 0.0215,-0.47282 z m 0.0172,-8.27931 c -0.0482,-1.45852 -0.0877,-0.26519 -0.0877,2.65185 0,2.91703 0.0395,4.11036 0.0877,2.65185 0.0482,-1.45852 0.0482,-3.84518 0,-5.3037 z"
     style="fill:#ffccaa;stroke-width:0.25936836" />
</svg>
